<?xml version="1.0" standalone="no"?><!DOCTYPE svg PUBLIC "-//W3C//DTD SVG 1.1//EN" "http://www.w3.org/Graphics/SVG/1.1/DTD/svg11.dtd"><svg height="1500" node-id="1" sillyvg="true" template-height="1500" template-width="1736" version="1.1" viewBox="0 0 1736 1500" width="1736" xmlns="http://www.w3.org/2000/svg" xmlns:xlink="http://www.w3.org/1999/xlink"><defs node-id="56"><linearGradient gradientUnits="userSpaceOnUse" id="未命名的渐变_94" node-id="5" spreadMethod="pad" x1="757" x2="829" y1="1075.5" y2="1075.5"><stop offset="0" stop-color="#ebf4ff"></stop><stop offset="1" stop-color="#ebe1ff"></stop></linearGradient><linearGradient gradientUnits="userSpaceOnUse" id="未命名的渐变_94-2" node-id="8" spreadMethod="pad" x1="299" x2="1321" y1="699" y2="699"><stop offset="0" stop-color="#ebf4ff"></stop><stop offset="1" stop-color="#ebe1ff"></stop></linearGradient><linearGradient gradientUnits="userSpaceOnUse" id="未命名的渐变_49" node-id="9" spreadMethod="pad" x1="460" x2="520" y1="457" y2="457"><stop offset="0" stop-color="#ebf4ff"></stop><stop offset="1" stop-color="#ebebff"></stop></linearGradient><linearGradient gradientUnits="userSpaceOnUse" id="未命名的渐变_49-2" node-id="12" spreadMethod="pad" x1="552" x2="612" y1="457" y2="457"><stop offset="0" stop-color="#ebf4ff"></stop><stop offset="1" stop-color="#ebebff"></stop></linearGradient><linearGradient gradientUnits="userSpaceOnUse" id="未命名的渐变_49-3" node-id="13" spreadMethod="pad" x1="296" x2="1314" y1="924" y2="924"><stop offset="0" stop-color="#ebf4ff"></stop><stop offset="1" stop-color="#ebebff"></stop></linearGradient><linearGradient gradientUnits="userSpaceOnUse" id="未命名的渐变_17" node-id="14" spreadMethod="pad" x1="94394.1" x2="94471.805" y1="-79287.46" y2="-79287.46"><stop offset="0" stop-color="#eaeff5"></stop><stop offset="0.99" stop-color="#dee1f0"></stop></linearGradient><linearGradient gradientUnits="userSpaceOnUse" id="未命名的渐变_23" node-id="17" spreadMethod="pad" x1="200013.67" x2="200172.94" y1="-41439.71" y2="-41439.71"><stop offset="0" stop-color="#548fff"></stop><stop offset="1" stop-color="#949fff"></stop></linearGradient><linearGradient gradientUnits="userSpaceOnUse" id="未命名的渐变_49-4" node-id="20" spreadMethod="pad" x1="200.48" x2="361.44" y1="921.88" y2="921.88"><stop offset="0" stop-color="#ebf4ff"></stop><stop offset="1" stop-color="#ebebff"></stop></linearGradient></defs><path d="M 65.00 1153.00 L 1643.00 1153.00" fill="none" node-id="108" stroke="#d3dcf4" stroke-linecap="round" stroke-width="20" target-height="0" target-width="1578" target-x="65" target-y="1153"></path><path d="M 757.00 1022.00 L 829.00 1022.00 L 829.00 1129.00 L 757.00 1129.00 Z" fill="url(#未命名的渐变_94)" fill-rule="nonzero" node-id="110" stroke="none" target-height="107" target-width="72" target-x="757" target-y="1022"></path><path d="M 722.50 1112.00 L 863.50 1112.00 C 872.06 1112.00 879.00 1118.94 879.00 1127.50 L 879.00 1127.50 C 879.00 1136.06 872.06 1143.00 863.50 1143.00 L 722.50 1143.00 C 713.94 1143.00 707.00 1136.06 707.00 1127.50 L 707.00 1127.50 C 707.00 1118.94 713.94 1112.00 722.50 1112.00 Z" fill="#5d83ff" fill-rule="nonzero" node-id="112" stroke="none" target-height="31" target-width="172" target-x="707" target-y="1112"></path><path d="M 359.00 376.00 L 1261.00 376.00 C 1294.14 376.00 1321.00 402.86 1321.00 436.00 L 1321.00 962.00 C 1321.00 995.14 1294.14 1022.00 1261.00 1022.00 L 359.00 1022.00 C 325.86 1022.00 299.00 995.14 299.00 962.00 L 299.00 436.00 C 299.00 402.86 325.86 376.00 359.00 376.00 Z" fill="url(#未命名的渐变_94-2)" fill-rule="nonzero" node-id="114" stroke="#5d83ff" stroke-linecap="butt" stroke-width="18" target-height="646" target-width="1022" target-x="299" target-y="376"></path><path d="M 424.00 457.00 C 424.00 473.57 410.57 487.00 394.00 487.00 C 377.43 487.00 364.00 473.57 364.00 457.00 C 364.00 440.43 377.43 427.00 394.00 427.00 C 410.57 427.00 424.00 440.43 424.00 457.00 Z" fill="#ffffff" fill-rule="nonzero" node-id="116" stroke="#fe9f39" stroke-linecap="butt" stroke-width="24" target-height="60" target-width="60" target-x="364" target-y="427"></path><path d="M 520.00 457.00 C 520.00 473.57 506.57 487.00 490.00 487.00 C 473.43 487.00 460.00 473.57 460.00 457.00 C 460.00 440.43 473.43 427.00 490.00 427.00 C 506.57 427.00 520.00 440.43 520.00 457.00 Z" fill="url(#未命名的渐变_49)" fill-rule="nonzero" node-id="118" stroke="#5d83ff" stroke-linecap="round" stroke-width="18" target-height="60" target-width="60" target-x="460" target-y="427"></path><path d="M 612.00 457.00 C 612.00 473.57 598.57 487.00 582.00 487.00 C 565.43 487.00 552.00 473.57 552.00 457.00 C 552.00 440.43 565.43 427.00 582.00 427.00 C 598.57 427.00 612.00 440.43 612.00 457.00 Z" fill="url(#未命名的渐变_49-2)" fill-rule="nonzero" node-id="120" stroke="#5d83ff" stroke-linecap="round" stroke-width="18" target-height="60" target-width="60" target-x="552" target-y="427"></path><path d="M 296.00 922.00 L 1314.00 926.00" fill="url(#未命名的渐变_49-3)" fill-rule="nonzero" node-id="122" stroke="#5d83ff" stroke-linecap="butt" stroke-width="18" target-height="4" target-width="1018" target-x="296" target-y="922"></path><path d="M 479.00 548.00 L 668.00 548.00 C 690.09 548.00 708.00 565.91 708.00 588.00 L 708.00 777.00 C 708.00 799.09 690.09 817.00 668.00 817.00 L 479.00 817.00 C 456.91 817.00 439.00 799.09 439.00 777.00 L 439.00 588.00 C 439.00 565.91 456.91 548.00 479.00 548.00 Z" fill="#3a3a77" fill-rule="nonzero" node-id="124" stroke="none" target-height="269" target-width="269" target-x="439" target-y="548"></path><path d="M 912.35 510.87 C 892.87 518.45 873.35 526.04 854.53 535.20 C 839.05 542.74 824.59 552.00 809.67 560.54 C 797.79 567.34 778.53 578.13 782.07 594.70 C 785.07 608.99 803.35 609.70 814.92 608.70 C 832.29 607.17 849.15 601.92 865.47 596.04 C 884.03 589.35 902.24 581.81 921.18 576.21 C 923.74 575.46 926.30 574.71 928.89 574.08 C 930.12 573.79 931.35 573.54 932.59 573.31 C 934.84 572.88 930.93 573.40 932.37 573.31 C 933.03 573.31 933.69 573.19 934.37 573.18 C 934.83 573.18 935.37 573.28 935.79 573.24 C 933.44 573.48 933.79 572.81 934.89 573.24 C 932.20 572.41 930.35 569.93 930.32 567.11 C 930.32 567.97 930.89 564.44 930.42 566.35 C 929.95 568.26 931.25 564.96 930.50 566.28 C 930.12 566.95 929.77 567.64 929.36 568.28 C 929.06 568.77 928.71 569.22 928.42 569.71 C 927.71 570.87 929.73 568.24 928.64 569.44 C 927.66 570.55 926.62 571.61 925.51 572.59 L 924.62 573.33 C 923.13 574.64 925.87 572.45 924.81 573.21 C 924.07 573.74 923.34 574.29 922.60 574.81 C 919.69 576.86 916.67 578.81 913.78 580.81 C 906.94 585.70 900.50 591.43 898.01 599.81 C 896.35 605.38 896.79 611.41 900.69 615.93 C 903.78 619.51 908.69 620.82 913.23 620.83 C 923.23 620.83 933.23 616.45 942.23 612.61 C 951.74 608.61 960.98 603.93 970.10 599.09 C 977.29 595.28 984.59 591.56 991.68 587.56 C 995.95 585.16 1000.18 582.68 1004.53 580.43 C 1006.53 579.43 1008.62 578.37 1010.72 577.43 C 1009.24 578.07 1011.95 576.96 1012.45 576.78 C 1013.73 576.32 1015.02 575.90 1016.34 575.54 C 1017.34 575.26 1018.34 575.02 1019.44 574.81 C 1020.08 574.69 1023.06 574.40 1020.98 574.54 C 1021.83 574.48 1022.67 574.37 1023.52 574.35 C 1024.61 574.35 1026.97 574.90 1023.89 574.19 C 1025.69 574.61 1022.55 573.43 1023.18 573.79 C 1021.69 572.78 1020.56 571.32 1019.95 569.63 C 1019.40 567.48 1019.69 567.06 1019.68 567.92 C 1019.68 565.92 1020.04 565.42 1019.87 566.28 C 1019.83 566.47 1019.78 566.65 1019.70 566.83 C 1019.24 568.06 1020.88 564.69 1020.09 565.83 C 1014.09 574.73 1005.83 587.24 1013.09 597.83 C 1020.35 608.42 1035.00 607.21 1046.09 605.61 C 1055.56 604.18 1064.86 601.78 1073.84 598.44 C 1084.30 594.62 1094.48 590.08 1104.65 585.54 L 1111.96 582.28 L 1115.41 580.77 L 1117.14 580.01 L 1118.38 579.48 C 1117.73 579.76 1117.69 579.77 1118.28 579.48 C 1123.36 577.48 1128.50 575.40 1133.36 572.89 C 1136.23 571.41 1138.92 569.62 1141.71 568.01 C 1143.04 567.24 1144.39 566.49 1145.77 565.80 L 1146.77 565.31 C 1147.95 564.73 1147.57 565.55 1146.27 565.50 C 1146.88 565.40 1147.48 565.20 1148.04 564.93 C 1146.04 566.08 1142.04 564.06 1140.54 562.18 C 1139.42 560.76 1138.88 558.98 1139.02 557.18 C 1139.28 554.97 1138.71 557.28 1138.72 557.60 C 1138.72 557.53 1139.79 555.39 1139.15 556.60 C 1138.98 556.92 1138.83 557.26 1138.66 557.60 C 1137.38 560.07 1135.83 562.39 1134.32 564.72 C 1132.95 566.83 1131.32 569.06 1130.72 571.52 C 1129.60 576.27 1129.42 581.18 1130.17 586.00 C 1131.40 595.13 1135.87 603.66 1144.24 608.12 C 1158.06 615.48 1175.06 611.69 1189.59 608.89 C 1192.73 608.29 1195.87 607.67 1199.03 607.16 C 1199.75 607.04 1200.51 606.99 1201.21 606.82 C 1198.54 607.45 1200.63 606.90 1201.42 606.82 C 1202.84 606.67 1204.26 606.57 1205.68 606.55 C 1210.39 606.49 1214.90 602.46 1214.68 597.55 C 1214.46 592.64 1210.68 588.49 1205.68 588.55 C 1198.88 588.64 1192.08 590.14 1185.42 591.42 C 1181.97 592.08 1178.51 592.75 1175.03 593.31 C 1174.18 593.44 1173.33 593.55 1172.48 593.69 C 1171.22 593.90 1174.23 593.50 1172.96 593.63 L 1171.69 593.78 C 1169.92 593.98 1168.15 594.14 1166.37 594.23 C 1164.76 594.31 1163.14 594.34 1161.53 594.29 C 1160.75 594.29 1159.97 594.22 1159.20 594.15 C 1158.82 594.07 1158.44 594.03 1158.05 594.03 C 1159.42 594.23 1159.75 594.27 1159.05 594.16 L 1158.22 594.02 C 1156.81 593.73 1155.41 593.36 1154.04 592.92 C 1152.65 592.51 1154.57 593.13 1154.73 593.25 C 1154.41 593.08 1154.07 592.93 1153.73 592.81 C 1152.96 592.43 1152.25 591.96 1151.51 591.51 C 1150.29 590.77 1153.02 592.89 1151.32 591.31 C 1151.07 591.09 1150.16 589.82 1149.87 589.80 C 1150.03 589.80 1151.09 591.65 1150.28 590.33 C 1150.05 589.95 1149.79 589.59 1149.56 589.20 C 1149.33 588.81 1149.14 588.37 1148.91 587.98 C 1149.50 588.98 1149.22 588.80 1148.91 587.82 C 1148.59 586.89 1148.33 585.95 1148.12 584.99 C 1148.02 584.51 1147.95 583.99 1147.84 583.53 C 1147.54 582.21 1147.91 585.03 1147.84 583.68 C 1147.77 581.56 1147.69 579.52 1147.84 577.40 C 1147.99 575.28 1147.84 577.71 1147.78 577.71 C 1147.72 577.71 1148.03 576.55 1148.03 576.39 C 1148.10 575.08 1146.85 578.51 1147.53 577.56 C 1148.21 576.61 1148.64 575.66 1149.22 574.76 C 1150.72 572.43 1152.28 570.13 1153.63 567.76 C 1155.28 564.76 1156.86 561.50 1156.89 558.03 C 1156.94 555.23 1155.88 552.52 1153.93 550.51 C 1151.98 548.50 1149.30 547.34 1146.50 547.31 C 1140.13 547.39 1133.95 551.70 1128.70 554.95 C 1126.87 556.08 1125.00 557.13 1123.08 558.08 C 1122.02 558.60 1120.95 559.08 1119.88 559.57 L 1118.26 560.28 C 1119.41 559.78 1118.02 560.38 1117.56 560.57 C 1112.35 562.73 1107.15 564.91 1101.99 567.20 C 1087.10 573.80 1074.50 580.05 1058.77 584.51 C 1054.09 585.85 1049.34 586.96 1044.54 587.81 C 1043.31 588.03 1042.05 588.16 1040.82 588.40 C 1043.82 587.83 1041.68 588.28 1040.91 588.40 C 1040.14 588.52 1039.39 588.56 1038.62 588.62 C 1036.26 588.82 1033.88 588.85 1031.51 588.71 C 1030.98 588.71 1030.45 588.58 1029.93 588.56 C 1029.72 588.56 1032.43 589.06 1030.45 588.56 C 1029.45 588.33 1028.55 588.04 1027.59 587.77 C 1026.63 587.50 1029.77 588.98 1028.27 588.03 C 1027.95 587.80 1027.62 587.59 1027.27 587.40 C 1026.42 586.99 1029.08 589.24 1027.86 587.77 C 1026.86 586.59 1029.39 589.85 1028.30 588.35 C 1028.22 588.18 1028.12 588.01 1028.02 587.85 C 1027.40 587.14 1028.59 589.01 1028.57 589.18 C 1028.52 588.77 1028.41 588.38 1028.25 588.00 C 1027.84 587.00 1028.47 589.28 1028.43 589.42 C 1028.44 589.19 1028.44 588.96 1028.43 588.73 C 1028.43 588.50 1028.43 588.24 1028.43 588.01 C 1028.43 587.01 1029.02 586.67 1028.26 588.85 C 1028.63 587.70 1028.94 586.53 1029.18 585.34 C 1029.46 584.07 1028.07 587.50 1029.07 585.62 C 1029.38 585.04 1029.68 584.46 1030.01 583.89 C 1032.54 579.56 1036.23 575.61 1037.35 570.59 C 1038.56 565.73 1036.40 560.66 1032.06 558.16 C 1028.62 556.22 1024.44 556.16 1020.63 556.63 C 1003.01 558.63 988.22 569.14 972.86 577.19 C 966.34 580.61 959.92 584.19 953.36 587.55 C 948.77 589.89 944.14 592.16 939.46 594.30 C 938.30 594.83 937.15 595.30 935.98 595.86 L 933.98 596.70 C 932.25 597.45 935.89 595.93 933.76 596.79 C 931.41 597.79 929.04 598.69 926.64 599.55 C 922.67 600.95 918.60 602.05 914.47 602.85 C 913.17 603.11 917.29 602.60 915.16 602.74 L 913.99 602.82 C 913.23 602.82 912.48 602.75 911.73 602.82 C 910.98 602.89 914.39 603.46 912.94 602.97 C 912.66 602.88 912.37 602.80 912.08 602.75 C 910.59 602.45 914.23 603.75 913.27 603.27 C 912.31 602.79 911.77 601.99 914.11 604.06 C 913.92 603.89 913.74 603.72 913.57 603.54 C 912.82 602.73 915.15 605.86 914.44 604.60 C 913.73 603.34 915.33 606.71 914.95 605.84 C 914.77 605.41 914.61 603.94 914.89 605.98 C 915.17 608.02 915.12 605.49 915.05 604.92 C 915.05 604.92 914.51 607.47 914.86 606.44 C 914.93 606.25 914.93 606.02 914.98 605.83 C 915.16 605.17 915.42 604.49 915.56 603.83 C 915.79 602.71 914.70 605.39 915.30 604.42 C 915.49 604.10 915.63 603.75 915.81 603.42 C 916.18 602.76 916.64 602.16 917.03 601.51 C 917.62 600.51 915.85 602.79 916.68 601.98 C 916.95 601.71 917.18 601.39 917.44 601.11 C 918.04 600.45 918.67 599.83 919.32 599.23 C 919.97 598.63 920.53 598.16 921.15 597.65 C 921.46 597.37 921.80 597.11 922.15 596.88 C 920.42 597.94 921.39 597.46 921.81 597.16 C 923.36 596.08 924.89 594.98 926.46 593.93 C 932.93 589.58 939.39 585.33 943.92 578.86 C 948.45 572.39 951.05 561.86 942.51 557.16 C 936.81 554.01 929.84 555.39 923.85 556.84 C 917.18 558.47 910.56 560.57 904.06 562.75 C 884.85 569.17 866.26 577.31 846.95 583.41 C 837.98 586.34 828.81 588.61 819.51 590.21 L 818.15 590.42 L 817.40 590.53 C 816.40 590.70 819.70 590.24 818.61 590.36 C 817.30 590.51 815.99 590.67 814.67 590.78 C 811.99 591.02 809.29 591.12 806.60 591.07 C 805.30 591.07 804.00 590.91 802.70 590.82 C 801.23 590.72 803.63 590.89 803.70 590.96 C 803.40 590.89 803.10 590.84 802.79 590.81 C 802.06 590.66 801.33 590.53 800.61 590.33 C 800.06 590.18 799.54 589.97 799.00 589.82 C 797.70 589.46 801.06 591.00 799.34 589.92 C 798.08 589.13 798.66 588.92 799.62 590.31 C 799.46 590.14 799.28 589.99 799.09 589.85 C 798.20 588.92 799.30 589.26 799.60 590.62 C 799.50 590.42 799.38 590.22 799.24 590.04 C 798.75 589.14 799.83 590.34 799.73 591.24 C 799.68 591.01 799.62 590.78 799.53 590.56 C 799.29 589.56 799.99 590.56 799.68 591.84 C 799.74 591.30 799.74 590.75 799.68 590.21 C 799.81 590.42 799.11 592.55 799.59 591.21 C 799.72 590.86 799.82 590.50 799.89 590.14 C 800.02 589.14 798.89 591.98 799.47 591.14 C 799.63 590.89 799.74 590.60 799.88 590.35 C 800.19 589.80 800.59 589.35 800.88 588.77 C 801.44 587.83 799.61 590.19 800.41 589.41 C 800.65 589.16 800.87 588.88 801.10 588.62 C 801.66 588.01 802.24 587.43 802.85 586.86 C 803.46 586.29 804.00 585.86 804.60 585.31 C 804.90 585.05 805.22 584.80 805.53 584.55 C 806.76 583.55 805.30 584.67 805.17 584.81 C 806.33 583.48 808.46 582.45 809.94 581.48 C 813.06 579.48 816.28 577.54 819.53 575.69 C 825.31 572.41 831.00 569.09 836.65 565.59 C 845.36 560.22 854.35 555.29 863.56 550.83 C 867.98 548.68 872.44 546.61 876.95 544.62 C 879.13 543.62 881.32 542.69 883.51 541.76 L 885.16 541.05 C 886.56 540.46 884.10 541.50 885.50 540.91 L 889.23 539.36 C 898.46 535.56 907.77 531.94 917.08 528.36 C 921.45 526.66 924.97 522.24 923.36 517.29 C 921.99 513.04 916.99 509.17 912.29 511.00 Z" fill="#fe9f39" fill-rule="nonzero" node-id="126" stroke="none" target-height="111.66" target-width="436.37" target-x="778.53" target-y="509.17"></path><path d="M 588.92 699.27 C 612.76 691.45 627.39 667.46 623.43 642.68 C 619.47 617.90 598.09 599.67 573.00 599.67 C 547.91 599.67 526.53 617.90 522.57 642.68 C 518.61 667.46 533.24 691.45 557.08 699.27 C 518.60 704.71 489.96 737.58 489.84 776.44 L 489.84 817.00 L 656.16 817.00 L 656.16 776.44 C 656.04 737.58 627.40 704.71 588.92 699.27 Z" fill="#ffffff" fill-rule="nonzero" node-id="128" stroke="none" target-height="217.33002" target-width="166.31998" target-x="489.84" target-y="599.67"></path><path d="M 814.00 661.00 L 1145.00 661.00 C 1154.94 661.00 1163.00 669.06 1163.00 679.00 L 1163.00 679.00 C 1163.00 688.94 1154.94 697.00 1145.00 697.00 L 814.00 697.00 C 804.06 697.00 796.00 688.94 796.00 679.00 L 796.00 679.00 C 796.00 669.06 804.06 661.00 814.00 661.00 Z" fill="#5d83ff" fill-rule="nonzero" node-id="130" stroke="none" target-height="36" target-width="367" target-x="796" target-y="661"></path><path d="M 814.00 771.00 L 1066.00 771.00 C 1075.94 771.00 1084.00 779.06 1084.00 789.00 L 1084.00 789.00 C 1084.00 798.94 1075.94 807.00 1066.00 807.00 L 814.00 807.00 C 804.06 807.00 796.00 798.94 796.00 789.00 L 796.00 789.00 C 796.00 779.06 804.06 771.00 814.00 771.00 Z" fill="#5d83ff" fill-rule="nonzero" node-id="132" stroke="none" target-height="36" target-width="288" target-x="796" target-y="771"></path><path d="M 1132.00 845.00 L 1174.00 845.00 C 1179.52 845.00 1184.00 849.48 1184.00 855.00 L 1184.00 855.00 C 1184.00 860.52 1179.52 865.00 1174.00 865.00 L 1132.00 865.00 C 1126.48 865.00 1122.00 860.52 1122.00 855.00 L 1122.00 855.00 C 1122.00 849.48 1126.48 845.00 1132.00 845.00 Z" fill="#fe9f39" fill-rule="nonzero" node-id="134" stroke="none" target-height="20" target-width="62" target-x="1122" target-y="845"></path><path d="M 1221.00 845.00 L 1247.00 845.00 C 1252.52 845.00 1257.00 849.48 1257.00 855.00 L 1257.00 855.00 C 1257.00 860.52 1252.52 865.00 1247.00 865.00 L 1221.00 865.00 C 1215.48 865.00 1211.00 860.52 1211.00 855.00 L 1211.00 855.00 C 1211.00 849.48 1215.48 845.00 1221.00 845.00 Z" fill="#fe9f39" fill-rule="nonzero" node-id="136" stroke="none" target-height="20" target-width="46" target-x="1211" target-y="845"></path><g node-id="155"><path d="M 1240.00 1066.00 L 1211.00 1159.00 L 1302.00 1122.00 L 1240.00 1066.00 Z" fill="#fe9f39" fill-rule="nonzero" group-id="1" node-id="139" stroke="none" target-height="93" target-width="91" target-x="1211" target-y="1066"></path><g node-id="157"><path d="M 1529.06 756.45 L 1576.17 798.29 L 1577.54 799.76 L 1578.59 801.36 L 1579.32 803.10 L 1579.75 804.94 L 1579.86 806.79 L 1579.65 808.67 L 1579.13 810.49 L 1578.28 812.19 L 1577.09 813.82 L 1305.49 1119.62 L 1304.01 1121.00 L 1302.42 1122.04 L 1300.68 1122.77 L 1298.84 1123.20 L 1296.99 1123.31 L 1295.11 1123.10 L 1293.29 1122.58 L 1291.58 1121.73 L 1289.96 1120.54 L 1242.85 1078.71 L 1241.48 1077.23 L 1240.43 1075.64 L 1239.70 1073.90 L 1239.27 1072.05 L 1239.16 1070.20 L 1239.37 1068.32 L 1239.89 1066.51 L 1240.74 1064.80 L 1241.93 1063.18 L 1513.53 757.37 L 1515.01 756.00 L 1516.60 754.95 L 1518.34 754.22 L 1520.19 753.79 L 1522.03 753.68 L 1523.91 753.89 L 1525.73 754.41 L 1527.44 755.26 L 1529.06 756.45 Z" fill="#3a3a77" fill-rule="nonzero" group-id="1,3" node-id="143" stroke="none" target-height="369.63007" target-width="340.69995" target-x="1239.16" target-y="753.68"></path></g><path d="M 572.76 1199.00 C 668.76 1186.86 764.55 1173.77 860.76 1163.48 C 930.43 1156.03 1000.26 1150.20 1070.11 1144.72 C 1099.56 1142.41 1129.03 1139.94 1158.54 1138.48 L 1149.86 1127.09 C 1150.31 1125.83 1150.98 1124.67 1151.86 1123.66 C 1150.71 1124.90 1152.97 1122.53 1152.99 1122.86 C 1153.01 1123.19 1150.99 1124.14 1150.72 1124.28 C 1148.30 1125.65 1145.72 1126.80 1143.19 1127.94 C 1141.57 1128.66 1139.93 1129.36 1138.30 1130.06 C 1137.91 1130.26 1137.51 1130.43 1137.09 1130.57 C 1135.88 1131.07 1134.67 1131.57 1133.45 1132.07 C 1128.45 1134.12 1123.45 1136.07 1118.37 1138.07 C 1091.37 1148.61 1064.18 1158.64 1037.06 1168.84 C 1006.50 1180.34 975.95 1191.90 945.68 1204.13 C 922.21 1213.62 898.29 1223.02 876.10 1235.29 C 870.28 1238.51 863.82 1242.06 859.44 1247.16 C 856.20 1250.93 854.11 1256.16 856.82 1260.85 C 859.14 1264.91 863.38 1265.97 867.64 1266.45 C 875.41 1267.33 883.43 1266.64 891.21 1266.16 C 904.60 1265.33 917.97 1264.09 931.33 1262.76 C 986.55 1257.26 1041.59 1250.08 1096.63 1242.97 C 1198.89 1229.76 1299.20 1205.87 1399.71 1183.37 C 1412.11 1180.60 1424.52 1177.86 1436.93 1175.15 C 1448.25 1172.69 1443.46 1155.33 1432.15 1157.79 C 1325.82 1180.89 1219.96 1208.29 1112.01 1222.99 C 1060.97 1229.94 1009.83 1236.24 958.59 1241.89 C 932.23 1244.79 905.67 1248.04 879.14 1248.73 C 875.76 1248.82 872.42 1248.73 869.05 1248.60 C 866.74 1248.50 869.65 1248.72 869.54 1248.70 C 869.12 1248.66 868.70 1248.57 868.30 1248.44 C 866.72 1247.82 870.43 1249.44 869.61 1249.01 C 872.59 1251.03 874.04 1254.66 873.28 1258.18 C 873.68 1256.39 872.42 1259.97 872.78 1259.25 C 873.44 1257.93 873.95 1258.84 872.17 1259.89 C 872.97 1259.21 873.71 1258.46 874.38 1257.65 C 874.99 1257.06 877.09 1255.72 874.38 1257.65 C 874.98 1257.23 875.57 1256.78 876.17 1256.36 C 877.57 1255.36 879.02 1254.48 880.48 1253.60 C 889.00 1248.62 897.79 1244.13 906.82 1240.15 C 912.50 1237.53 918.22 1235.01 923.97 1232.54 C 925.51 1231.87 927.06 1231.22 928.60 1230.54 C 930.60 1229.70 929.18 1230.28 931.22 1229.43 C 934.78 1227.94 938.36 1226.43 941.93 1224.99 C 971.27 1212.99 1000.93 1201.67 1030.57 1190.47 C 1058.44 1179.96 1086.39 1169.63 1114.19 1158.93 C 1123.97 1155.16 1133.73 1151.36 1143.39 1147.31 C 1149.39 1144.82 1155.76 1142.50 1161.23 1139.01 C 1163.77 1137.39 1166.69 1135.01 1167.23 1131.87 C 1168.23 1126.45 1164.86 1120.17 1158.55 1120.48 C 1098.20 1123.48 1037.90 1129.15 977.72 1134.32 C 897.00 1141.27 816.44 1150.00 736.06 1160.10 C 681.61 1166.92 627.21 1174.10 572.76 1181.02 C 567.94 1181.63 563.76 1184.72 563.76 1190.02 C 563.76 1194.41 567.90 1199.63 572.76 1199.02 Z" fill="#fe9f39" fill-rule="nonzero" group-id="1,4" node-id="147" stroke="none" target-height="147.15991" target-width="884.49" target-x="563.76" target-y="1120.17"></path></g><path d="M 1485.00 327.00 L 1442.00 286.00 L 1394.00 369.00 L 1485.00 327.00 Z" fill="#d3dcf4" fill-rule="nonzero" node-id="151" stroke="none" target-height="83" target-width="91" target-x="1394" target-y="286"></path><path d="M 1537.00 386.00 L 1407.00 401.00 L 1537.00 443.00 L 1537.00 386.00 Z" fill="#d3dcf4" fill-rule="nonzero" node-id="153" stroke="none" target-height="57" target-width="130" target-x="1407" target-y="386"></path><path d="M 170.70 1120.13 L 137.91 1101.22 C 135.50 1099.79 135.75 1097.31 138.60 1095.66 L 169.75 1077.66 C 172.60 1076.02 176.97 1075.84 179.37 1077.27 L 212.17 1096.17 C 214.65 1097.60 214.33 1100.09 211.48 1101.74 L 180.34 1119.74 C 177.49 1121.33 173.18 1121.55 170.70 1120.13 Z" fill="#c9cfe5" fill-opacity="0.3" fill-rule="nonzero" group-id="2,5,7" id="路径" node-id="48" stroke="none" target-height="45.710083" target-width="79.149994" target-x="135.5" target-y="1075.84"></path><path d="M 213.84 1083.14 C 213.85 1083.04 213.85 1082.94 213.84 1082.84 L 213.84 739.84 L 136.25 739.84 L 136.25 1083.21 C 136.32 1084.26 136.96 1085.18 137.91 1085.62 L 170.70 1104.52 C 173.18 1105.94 177.49 1105.73 180.33 1104.12 L 211.47 1086.12 C 212.66 1085.57 213.53 1084.50 213.82 1083.22 Z" fill="url(#未命名的渐变_17)" fill-rule="nonzero" group-id="2,5" id="路径-2" node-id="49" stroke="none" target-height="366.0999" target-width="77.600006" target-x="136.25" target-y="739.84"></path><path d="M 170.70 761.35 L 137.91 742.44 C 135.50 741.01 135.75 738.52 138.60 736.88 L 169.75 718.88 C 172.60 717.23 176.97 717.05 179.37 718.47 C 180.98 719.42 191.91 725.73 212.17 737.39 C 214.65 738.81 214.33 741.30 211.48 742.94 L 180.34 760.94 C 177.49 762.60 173.18 762.76 170.70 761.35 Z" fill="#fafbfd" fill-rule="nonzero" group-id="2,5" id="路径-3" node-id="50" stroke="none" target-height="45.710022" target-width="79.149994" target-x="135.5" target-y="717.05"></path><path d="M 271.94 1140.41 L 203.94 1101.23 C 198.80 1098.29 199.44 1093.13 205.37 1089.71 L 270.00 1052.50 C 275.92 1049.09 284.87 1048.73 290.00 1051.67 L 358.00 1090.85 C 363.12 1093.85 362.48 1098.96 356.56 1102.38 L 291.96 1139.58 C 286.00 1143.00 277.07 1143.36 271.94 1140.41 Z" fill="#a0b3f8" fill-opacity="0.3" fill-rule="nonzero" group-id="2,6,8" id="路径-4" node-id="52" stroke="none" target-height="94.630005" target-width="164.31999" target-x="198.8" target-y="1048.73"></path><path d="M 361.41 1069.78 C 361.43 1069.57 361.43 1069.37 361.41 1069.16 L 361.41 921.69 L 200.49 921.69 L 200.49 1069.90 C 200.49 1071.77 201.62 1073.51 203.95 1074.90 L 271.95 1114.06 C 277.07 1117.06 286.03 1116.65 291.95 1113.24 L 356.55 1076.00 C 359.55 1074.28 361.17 1072.10 361.37 1070.00 L 361.37 1070.00 Z" fill="url(#未命名的渐变_23)" fill-rule="nonzero" group-id="2,6" id="路径-5" node-id="53" stroke="none" target-height="195.37006" target-width="160.93999" target-x="200.49" target-y="921.69"></path><path d="M 271.94 966.30 L 203.94 927.08 C 198.80 924.08 199.44 918.96 205.37 915.56 L 270.00 878.28 C 275.92 874.88 284.88 874.50 290.00 877.46 L 358.00 916.63 C 363.12 919.63 362.48 924.75 356.57 928.15 L 291.96 965.43 C 286.00 968.88 277.07 969.26 271.94 966.30 Z" fill="url(#未命名的渐变_49-4)" fill-rule="nonzero" group-id="2,6" id="路径-6" node-id="54" stroke="none" target-height="94.76001" target-width="164.31999" target-x="198.8" target-y="874.5"></path></svg>