<?xml version="1.0" standalone="no"?><!DOCTYPE svg PUBLIC "-//W3C//DTD SVG 1.1//EN" "http://www.w3.org/Graphics/SVG/1.1/DTD/svg11.dtd"><svg t="1686300005871" class="icon" viewBox="0 0 1024 1024" version="1.1" xmlns="http://www.w3.org/2000/svg" p-id="982" xmlns:xlink="http://www.w3.org/1999/xlink" width="256" height="256"><path d="M462.660501 544.003631H247.976418C111.546486 544.003631 0.68644 654.177237 0 790.778779c0 128.879094 104.510477 233.21796 233.21796 233.21796 135.571883 0.68644 246.088709-108.629116 246.775149-244.200998V558.762089a16.079855 16.079855 0 0 0-17.160998-14.758458z" fill="#1978FD" p-id="983"></path><path d="M558.762089 479.993109h205.417144c143.465942 0 259.817507-116.351565 259.817506-259.817507v-1.20127C1023.996739 97.989298 926.007442 0 805.194017 0 660.698416 0.68644 544.003631 117.896055 544.003631 262.391657v199.925624c-0.85805 8.752109 5.491519 16.646168 14.243628 17.504218h0.51483z" fill="#FE9025" p-id="984"></path><path d="M797.471568 544.003631H558.762089c-8.752109 0-15.959728 7.207619-15.959728 15.959728v238.709479c0.68644 124.074014 101.078277 224.637461 225.323901 225.323901 141.406622 0 256.042087-114.635465 256.042087-256.042087-1.37288-124.074014-102.451157-223.951021-226.525171-223.951021zM256.042087 0C114.635465 0 0 114.635465 0 256.042087c0 123.730794 100.220227 223.951021 223.951021 223.951022h239.0527c8.752109 0 15.959728-7.207619 15.959728-15.959728V223.951021c0-123.387574-99.705397-223.436192-223.092972-223.951021z" fill="#1978FD" p-id="985"></path></svg>